<?xml version="1.0" encoding="UTF-8"?>
<!DOCTYPE svg PUBLIC "-//W3C//DTD SVG 1.1//EN" "http://www.w3.org/Graphics/SVG/1.1/DTD/svg11.dtd">
<!-- Creator: CorelDRAW X7 -->
<svg xmlns="http://www.w3.org/2000/svg" xml:space="preserve" width="778px" height="778px" version="1.1" style="shape-rendering:geometricPrecision; text-rendering:geometricPrecision; image-rendering:optimizeQuality; fill-rule:evenodd; clip-rule:evenodd"
viewBox="0 0 778 778"
 xmlns:xlink="http://www.w3.org/1999/xlink">
 <defs>
  <style type="text/css">
   <![CDATA[
    .fil0 {fill:#064A5D}
   ]]>
  </style>
 </defs>
 <g id="Layer_x0020_1">
  <metadata id="CorelCorpID_0Corel-Layer"/>
  <path class="fil0" d="M391 250c-57,0 -110,13 -157,31l-72 -112c-3,-10 -15,-13 -21,-6l0 0c-10,3 -10,15 -7,21l69 113c-115,62 -197,181 -203,322l778 0c-6,-138 -88,-256 -203,-322l72 -113c3,-6 3,-18 -7,-21l0 0c-6,-7 -18,-4 -21,6l-72 115c-50,-21 -103,-34 -156,-34l0 0zm-182 187c19,0 35,16 35,35 0,19 -16,34 -35,34 -18,0 -34,-15 -34,-34 0,-19 16,-35 34,-35zm363 0c19,0 34,16 34,35 0,19 -15,34 -34,34 -19,0 -35,-15 -35,-34 0,-19 16,-35 35,-35z"/>
 </g>
</svg>
