<?xml version="1.0" encoding="UTF-8"?>
<!DOCTYPE svg PUBLIC "-//W3C//DTD SVG 1.1//EN" "http://www.w3.org/Graphics/SVG/1.1/DTD/svg11.dtd">
<!-- Creator: CorelDRAW X7 -->
<svg xmlns="http://www.w3.org/2000/svg" xml:space="preserve" width="778px" height="778px" version="1.1" style="shape-rendering:geometricPrecision; text-rendering:geometricPrecision; image-rendering:optimizeQuality; fill-rule:evenodd; clip-rule:evenodd"
viewBox="0 0 778 778"
 xmlns:xlink="http://www.w3.org/1999/xlink">
 <defs>
  <style type="text/css">
   <![CDATA[
    .fil0 {fill:#064A5D}
    .fil1 {fill:white}
   ]]>
  </style>
 </defs>
 <g id="Layer_x0020_1">
  <metadata id="CorelCorpID_0Corel-Layer"/>
  <g id="_2591744168176">
   <path class="fil0" d="M2 370l0 37c1,3 3,35 4,42 10,61 32,113 66,163 7,9 27,34 37,44 1,2 3,3 5,5 4,4 7,8 12,12 8,7 14,13 25,21 57,44 122,72 195,80l18 1c2,1 1,0 2,1l46 0c1,-1 0,0 2,-1 1,0 2,0 3,0 1,0 3,0 5,0 3,-1 7,-1 10,-1 7,-1 14,-2 21,-3 12,-2 25,-5 37,-8 55,-16 94,-36 137,-69 2,-2 4,-3 6,-5 2,-1 5,-4 7,-5l12 -11c7,-6 28,-28 34,-35 37,-47 62,-91 78,-151 3,-12 6,-25 8,-38 1,-7 3,-39 4,-42l0 -37c-4,-11 2,-65 -37,-148 -17,-36 -30,-51 -50,-78 -2,-2 -4,-5 -5,-6 -3,-3 -4,-5 -6,-7l-41 -39c-25,-21 -53,-40 -84,-54 -35,-16 -68,-26 -107,-32l-41 -4 -32 0 -42 4c-38,6 -71,16 -106,32 -35,16 -57,32 -85,54 -8,7 -30,27 -35,34 -2,1 -2,2 -3,3 -25,26 -47,61 -63,94 -16,35 -26,67 -33,105 -1,8 -3,39 -4,42z"/>
   <path class="fil1" d="M41 372l0 33c0,1 1,6 1,11 18,0 134,0 139,1 1,35 7,87 16,122l9 36c-27,4 -82,32 -87,33 6,8 13,17 18,21 1,2 3,3 5,5 3,3 5,6 8,8 11,-3 47,-20 70,-23 11,30 25,55 42,81 5,6 10,13 15,19 23,8 48,13 73,16l17 1c1,1 0,0 1,1l42 0c1,-1 0,0 1,-1 1,0 2,0 3,0 1,0 3,0 4,0 4,0 7,-1 10,-1 6,-1 12,-2 18,-3 11,-1 23,-4 34,-7 7,-2 15,-4 21,-7 5,-6 10,-12 15,-19 16,-23 32,-53 42,-80 23,3 59,19 70,23 8,-7 23,-23 28,-29 1,-2 2,-3 3,-4l-40 -18c-11,-4 -34,-13 -45,-15l9 -37c8,-35 14,-86 15,-122 5,-1 113,0 138,0 0,-6 1,-10 1,-12l0 -33c0,-1 0,-1 0,-2l-138 0c-1,-39 -6,-86 -15,-124 -2,-12 -7,-26 -9,-37 16,-4 53,-18 70,-25 5,-3 13,-7 18,-9 -1,-2 -3,-4 -4,-6 -2,-2 -4,-5 -5,-6 -2,-2 -3,-4 -5,-6l-16 -15c-16,7 -58,21 -72,23 -2,-3 -10,-25 -13,-31 -4,-9 -9,-19 -14,-28 -5,-9 -11,-19 -17,-27l-16 -20c-19,-7 -39,-11 -61,-15l-37 -3 -28 0 -38 3c-21,4 -41,9 -60,15 -13,16 -21,27 -32,46 -5,9 -10,19 -15,28 -3,6 -10,26 -13,30 -18,-4 -53,-16 -70,-25 -6,6 -11,12 -14,15 -1,1 -1,2 -2,3 -5,4 -9,10 -14,15 24,11 37,18 63,28 6,2 18,5 23,7 0,4 -3,15 -5,19 -11,47 -18,97 -19,145l-138 0c0,1 0,1 0,2zm221 -199c19,6 82,11 104,11l0 -142c-13,3 -30,14 -37,21 -3,3 -5,4 -8,7 -3,3 -4,5 -7,8 -5,5 -8,10 -13,16 -7,10 -15,24 -22,37 -3,6 -17,35 -17,42zm150 12c36,-2 70,-4 105,-10 0,-5 -14,-36 -17,-42 -7,-13 -15,-27 -22,-38 -13,-18 -38,-46 -66,-53l0 143zm-149 424c13,43 55,115 103,127l0 -137c-25,1 -54,3 -78,7 -8,1 -18,3 -25,3zm149 127c47,-12 91,-85 103,-127 -8,0 -17,-2 -25,-3 -26,-4 -51,-6 -78,-7l0 137zm0 -191l0 6c20,0 41,2 60,5 10,1 20,2 29,4 9,1 20,4 28,5 2,-11 6,-23 8,-35 8,-37 12,-75 13,-113l-138 0 0 128zm-163 20c8,-1 19,-4 27,-5 28,-5 62,-8 90,-9l0 -134 -138 0c1,38 5,76 13,113 2,12 6,23 8,35zm-22 -195l139 0 0 -138c-27,0 -63,-4 -90,-9 -9,-1 -20,-4 -28,-5 -5,10 -12,57 -14,72 -4,26 -6,53 -7,80zm185 -137l0 137 139 0c-1,-26 -3,-53 -6,-79 -2,-12 -4,-24 -6,-36 -2,-12 -6,-24 -8,-35 -9,1 -19,3 -28,5 -18,2 -40,5 -59,6 -8,1 -25,0 -32,2z"/>
  </g>
 </g>
 <g id="Layer_x0020_1_0">
  <metadata id="CorelCorpID_1Corel-Layer"/>
  <path class="fil0" d="M-1808 -152c-56,0 -109,13 -156,32l-72 -113c-3,-9 -15,-12 -21,-6l0 0c-10,3 -10,16 -7,22l69 112c-116,63 -197,181 -203,322l778 0c-6,-137 -88,-256 -203,-322l72 -112c3,-6 3,-19 -7,-22l0 0c-6,-6 -18,-3 -21,6l-72 116c-50,-22 -103,-35 -157,-35l0 0zm-181 188c19,0 35,15 35,34 0,19 -16,35 -35,35 -18,0 -34,-16 -34,-35 0,-19 16,-34 34,-34zm363 0c18,0 34,15 34,34 0,19 -16,35 -34,35 -19,0 -35,-16 -35,-35 0,-19 16,-34 35,-34z"/>
 </g>
</svg>
