<?xml version="1.0" encoding="UTF-8"?>
<!DOCTYPE svg PUBLIC "-//W3C//DTD SVG 1.1//EN" "http://www.w3.org/Graphics/SVG/1.1/DTD/svg11.dtd">
<!-- Creator: CorelDRAW X7 -->
<svg xmlns="http://www.w3.org/2000/svg" xml:space="preserve" width="778px" height="778px" version="1.1" style="shape-rendering:geometricPrecision; text-rendering:geometricPrecision; image-rendering:optimizeQuality; fill-rule:evenodd; clip-rule:evenodd"
viewBox="0 0 778 778"
 xmlns:xlink="http://www.w3.org/1999/xlink">
 <defs>
  <style type="text/css">
   <![CDATA[
    .fil0 {fill:#064A5D}
    .fil2 {fill:#064A5D}
    .fil1 {fill:white}
   ]]>
  </style>
 </defs>
 <g id="Layer_x0020_1">
  <metadata id="CorelCorpID_0Corel-Layer"/>
  <g id="_2591752431808">
   <path class="fil0" d="M-2213 934l0 38c1,3 3,34 4,41 10,62 32,113 66,163 7,10 27,34 36,44 2,2 4,4 6,5 4,5 7,8 12,12 8,7 14,14 25,21 57,44 122,72 195,80l18 2c2,0 0,-1 2,1l46 0c1,-1 0,-1 2,-1 1,-1 2,-1 3,-1 1,0 3,0 4,0 4,0 8,-1 11,-1 7,-1 14,-2 21,-3 12,-2 25,-5 37,-8 55,-16 93,-36 137,-69 2,-1 4,-3 6,-5 2,-1 5,-3 7,-5l12 -11c7,-5 27,-27 34,-35 37,-46 62,-91 78,-151 3,-12 5,-25 7,-38 2,-7 4,-38 5,-41l0 -38c-4,-10 1,-64 -38,-148 -16,-36 -29,-51 -49,-78 -2,-2 -4,-5 -6,-6 -2,-3 -3,-5 -5,-6l-41 -40c-25,-21 -53,-40 -85,-54 -35,-16 -67,-26 -106,-32l-41 -4 -32 0 -42 4c-39,6 -71,16 -106,32 -35,16 -58,33 -85,55 -8,6 -30,27 -36,33 -1,2 -1,3 -2,4 -25,25 -48,60 -63,93 -16,35 -26,67 -33,106 -1,7 -3,38 -4,41z"/>
   <path class="fil1" d="M-2174 936l0 34c0,1 1,5 1,11 18,0 134,-1 139,0 1,35 7,88 15,122l10 36c-27,4 -82,32 -87,34 6,8 13,16 18,20 1,2 3,3 5,5 3,3 5,6 8,8 11,-3 47,-19 69,-23 12,30 25,55 43,81 5,7 10,13 15,19 23,8 47,13 73,16l16 2c2,0 1,0 2,1l42 0c1,-1 -1,-1 1,-1 1,-1 2,-1 3,-1 1,0 3,0 4,0 3,0 7,-1 10,-1 6,-1 12,-1 18,-2 11,-2 23,-5 34,-8 7,-2 14,-4 21,-6 5,-6 10,-13 15,-20 16,-23 32,-52 42,-80 23,4 58,20 70,23 7,-7 23,-23 28,-29 1,-1 2,-3 3,-4l-40 -17c-11,-5 -34,-14 -46,-16l10 -37c8,-35 14,-86 15,-122 5,-1 113,0 138,0 0,-6 1,-10 1,-11l0 -34c0,-1 0,-1 0,-1l-138 0c-1,-39 -6,-87 -15,-125 -2,-12 -7,-26 -9,-37 16,-3 53,-18 70,-25 5,-3 12,-7 18,-9 -1,-2 -3,-4 -4,-6 -2,-2 -4,-5 -5,-6 -2,-2 -3,-4 -5,-5l-16 -16c-16,7 -58,21 -72,23 -2,-3 -11,-25 -13,-30 -4,-10 -10,-20 -15,-29 -5,-9 -11,-18 -16,-26l-16 -21c-19,-6 -39,-11 -61,-14l-37 -4 -28 0 -38 4c-22,3 -41,8 -60,14 -13,16 -21,27 -32,46 -5,9 -10,19 -15,29 -3,6 -10,25 -13,29 -19,-4 -53,-16 -70,-25 -6,6 -12,12 -14,15 -1,1 -1,2 -2,3 -5,5 -10,10 -14,15 24,11 37,19 63,28 6,2 18,5 23,8 0,4 -4,14 -5,19 -11,46 -18,96 -19,145l-138 0c0,0 0,1 0,1zm221 -199c18,6 82,11 104,12l0 -143c-13,3 -31,14 -38,21 -2,3 -4,5 -7,7 -3,3 -4,5 -7,8 -5,5 -9,10 -13,16 -8,10 -16,24 -22,37 -3,7 -17,35 -17,42zm150 12c36,-1 69,-4 104,-10 1,-5 -13,-36 -16,-42 -7,-13 -15,-27 -22,-37 -13,-19 -38,-47 -66,-54l0 143zm-149 425c13,42 55,114 103,126l0 -137c-25,1 -54,3 -79,7 -7,1 -17,3 -24,4zm149 126c47,-12 90,-84 103,-126 -8,-1 -17,-3 -25,-4 -26,-4 -51,-6 -78,-7l0 137zm0 -191l0 6c19,1 41,2 60,5 10,1 20,2 29,4 9,1 20,4 28,5 2,-11 6,-23 8,-35 8,-37 12,-75 13,-113l-138 0 0 128zm-164 20c9,-1 19,-4 28,-5 28,-5 62,-8 90,-9l0 -134 -139 0c2,38 6,76 14,113 2,12 5,24 7,35zm-21 -194l139 0 0 -139c-27,0 -63,-4 -90,-9 -9,-1 -20,-4 -28,-5 -5,10 -13,57 -15,72 -3,26 -5,53 -6,81zm185 -138l0 138 139 0c-1,-27 -3,-54 -7,-80 -1,-12 -3,-24 -5,-36 -3,-12 -6,-24 -8,-35 -9,1 -19,3 -28,5 -18,3 -40,5 -59,6 -8,1 -25,1 -32,2z"/>
  </g>
  <g id="_2591752430432">
   <path class="fil2" d="M493 590c7,6 16,16 22,23 21,18 46,46 69,68 14,14 27,32 51,40 52,16 101,-34 86,-85 -7,-24 -27,-40 -40,-52l-90 -91c18,-37 27,-51 36,-96 15,-81 -6,-168 -55,-231 -3,-3 -5,-6 -8,-9 -3,-4 -4,-6 -8,-9 -3,-3 -5,-5 -8,-9 -3,-3 -6,-5 -9,-8l-17 -15c-118,-90 -279,-80 -383,23 -97,96 -118,259 -23,383l40 41c77,68 194,87 291,49 25,-9 27,-12 46,-22z"/>
   <path class="fil1" d="M319 124c-113,11 -209,116 -195,244 13,114 115,208 244,194 113,-12 208,-115 194,-244 -12,-114 -114,-206 -243,-194z"/>
   <path class="fil2" d="M172 341c0,37 10,71 30,100 5,6 15,20 21,23l47 -47c-2,-9 -50,-48 -20,-116 7,-18 18,-25 20,-32 -4,-2 -3,-2 -6,-5l-42 -42c-30,28 -50,77 -50,119z"/>
  </g>
 </g>
 <g id="Layer_x0020_1_0">
  <metadata id="CorelCorpID_1Corel-Layer"/>
  <path class="fil0" d="M-1808 -152c-56,0 -109,13 -156,32l-72 -113c-3,-9 -15,-12 -21,-6l0 0c-10,3 -10,16 -7,22l69 112c-116,63 -197,181 -203,322l778 0c-6,-137 -88,-256 -203,-322l72 -112c3,-6 3,-19 -7,-22l0 0c-6,-6 -18,-3 -21,6l-72 116c-50,-22 -103,-35 -157,-35l0 0zm-181 188c19,0 35,15 35,34 0,19 -16,35 -35,35 -18,0 -34,-16 -34,-35 0,-19 16,-34 34,-34zm363 0c18,0 34,15 34,34 0,19 -16,35 -34,35 -19,0 -35,-16 -35,-35 0,-19 16,-34 35,-34z"/>
 </g>
</svg>
